<svg version="1.2" xmlns="http://www.w3.org/2000/svg" viewBox="0 0 24 24" width="24" height="24">
	<title>BlackLogoNoText</title>
	<style>
		.s0 { fill: #000000;stroke: #000000;stroke-miterlimit:10;stroke-width: 0 } 
	</style>
	<g>
		<path class="s0" d="m23.63 8.62l-6.99-6.12q-0.13-0.11-0.29-0.11h-8.74q-0.16 0-0.29 0.11l-6.98 6.12c-0.15 0.13-0.2 0.34-0.11 0.52l2.19 4.37q0.09 0.18 0.29 0.23 0.2 0.03 0.37-0.09l3.49-2.8-1.58 10.25q-0.02 0.2 0.1 0.35 0.13 0.15 0.33 0.15h13.11q0.19 0 0.33-0.15 0.13-0.15 0.1-0.35l-1.57-10.24 3.49 2.79q0.17 0.13 0.37 0.09 0.2-0.05 0.29-0.23l2.19-4.37c0.09-0.18 0.05-0.39-0.1-0.52zm-17.69 12.12l0.87-5.68h4.32l-1.69 2.37 0.71 0.5 1.83-2.56 1.83 2.56 0.71-0.5-1.7-2.37h4.32l0.88 5.68zm-2.99-8.11l-1.79-3.58 6.36-5.56 3.94 6.05-3.02 4.64h-1.49l0.66-4.3c0.02-0.18-0.06-0.35-0.22-0.44-0.15-0.09-0.35-0.08-0.49 0.04l-3.95 3.15zm12.59-9.37l-3.56 5.49-3.56-5.49zm5.47 9.37l-3.95-3.15c-0.14-0.12-0.34-0.13-0.49-0.04-0.16 0.09-0.24 0.27-0.22 0.44l0.66 4.3h-7.53l2.86-4.4 4.1-6.29 6.36 5.56c0 0-1.79 3.58-1.79 3.58z"/>
		<path class="s0" d="m16.15 11.91v-2.89q0-0.04-0.03-0.07-0.02-0.02-0.06-0.02h-2.89q-0.04 0-0.06 0.02-0.03 0.03-0.03 0.07v2.89q0 0.04 0.03 0.06 0.02 0.03 0.06 0.03h2.89q0.04 0 0.06-0.03 0.03-0.02 0.03-0.06zm-2.9-0.08v-1.37h1.36v-1.36h1.37v1.36h-1.37v1.37z"/>
	</g>
</svg>