<svg version="1.2" xmlns="http://www.w3.org/2000/svg" viewBox="0 0 192 192" width="192" height="192">
	<title>BlackLogoNoText</title>
	<style>
		.s0 { fill: #000000;stroke: #000000;stroke-miterlimit:10;stroke-width: .4 } 
	</style>
	<g>
		<path class="s0" d="m189.02 68.92l-55.91-48.92c-0.65-0.57-1.44-0.87-2.32-0.87h-69.88c-0.83 0-1.66 0.3-2.32 0.87l-55.9 48.92c-1.18 1.05-1.53 2.75-0.83 4.19l17.47 34.94c0.48 0.97 1.36 1.62 2.36 1.84 1.01 0.22 2.1-0.04 2.93-0.7l27.95-22.36-12.62 81.99c-0.14 1 0.13 2 0.78 2.79 0.65 0.79 1.62 1.23 2.67 1.23h104.82c1.01 0 1.97-0.44 2.67-1.23 0.65-0.78 0.96-1.79 0.78-2.79l-12.58-81.94 27.96 22.36c0.83 0.65 1.92 0.92 2.92 0.69 1.05-0.21 1.93-0.91 2.36-1.83l17.48-34.94c0.74-1.45 0.39-3.19-0.79-4.24zm-141.52 96.97l6.99-45.43h34.55l-13.54 18.95 5.68 4.07 14.63-20.49 14.63 20.49 5.68-4.07-13.54-18.95h34.55l6.99 45.43zm-23.85-64.82l-14.33-28.66 50.85-44.5 31.54 48.44-24.16 37.12h-11.97l5.29-34.41c0.22-1.45-0.48-2.84-1.7-3.54-1.27-0.7-2.8-0.62-3.93 0.3l-31.58 25.25zm100.68-74.95l-28.48 43.85-28.48-43.85zm43.72 74.95l-31.58-25.25c-1.13-0.92-2.66-1-3.93-0.3-1.26 0.69-1.92 2.14-1.7 3.54l5.28 34.41h-60.27l22.89-35.2 32.76-50.36 50.88 44.51c0 0-14.33 28.66-14.33 28.65z"/>
		<path class="s0" d="m129.19 95.3v-23.18q-0.01-0.28-0.2-0.48-0.2-0.2-0.48-0.2h-23.18q-0.28 0-0.48 0.2-0.2 0.2-0.2 0.48v23.18q0 0.28 0.2 0.48 0.2 0.2 0.48 0.2h23.18q0.28 0 0.48-0.2 0.19-0.2 0.2-0.48zm-23.18-0.68v-10.91h10.91v-10.91h10.91v10.91h-10.91v10.91z"/>
	</g>
</svg>