<svg version="1.2" xmlns="http://www.w3.org/2000/svg" viewBox="0 0 32 32" width="32" height="32">
	<title>BlackLogoNoText</title>
	<style>
		.s0 { fill: #000000;stroke: #000000;stroke-miterlimit:10;stroke-width: .1 } 
	</style>
	<g>
		<path class="s0" d="m31.5 11.49l-9.31-8.16q-0.17-0.14-0.39-0.14h-11.65q-0.21 0-0.38 0.14l-9.32 8.16c-0.2 0.17-0.26 0.46-0.14 0.7l2.91 5.82q0.13 0.24 0.4 0.31 0.26 0.05 0.48-0.12l4.66-3.73-2.1 13.67q-0.04 0.26 0.13 0.46 0.17 0.2 0.44 0.21h17.47q0.26-0.01 0.45-0.21 0.17-0.2 0.13-0.46l-2.1-13.66 4.66 3.73q0.22 0.16 0.49 0.11 0.27-0.06 0.39-0.3l2.91-5.83c0.13-0.24 0.07-0.53-0.13-0.7zm-23.58 16.16l1.16-7.57h5.76l-2.26 3.16 0.95 0.67 2.44-3.41 2.44 3.41 0.94-0.67-2.25-3.16h5.76l1.16 7.57zm-3.97-10.81l-2.39-4.77 8.47-7.42 5.26 8.07-4.03 6.19h-1.99l0.88-5.73c0.03-0.24-0.08-0.48-0.29-0.59-0.21-0.12-0.46-0.11-0.65 0.05l-5.26 4.21zm16.78-12.5l-4.75 7.31-4.75-7.31zm7.29 12.5l-5.26-4.21c-0.19-0.16-0.45-0.17-0.66-0.05-0.21 0.11-0.32 0.35-0.28 0.59l0.88 5.73h-10.05l3.82-5.86 5.46-8.4 8.48 7.42c0 0-2.39 4.78-2.39 4.78z"/>
		<path class="s0" d="m21.53 15.88v-3.86q0-0.05-0.03-0.08-0.04-0.03-0.08-0.03h-3.87q-0.04 0-0.08 0.03-0.03 0.03-0.03 0.08v3.86q0 0.05 0.03 0.08 0.04 0.04 0.08 0.04h3.87q0.04 0 0.08-0.04 0.03-0.03 0.03-0.08zm-3.86-0.11v-1.82h1.82v-1.82h1.81v1.82h-1.81v1.82z"/>
	</g>
</svg>