<svg version="1.2" xmlns="http://www.w3.org/2000/svg" viewBox="0 0 64 64" width="64" height="64">
	<title>BlackLogoNoText</title>
	<style>
		.s0 { fill: #000000;stroke: #000000;stroke-miterlimit:10;stroke-width: .1 } 
	</style>
	<g>
		<path class="s0" d="m63.01 22.97l-18.64-16.3q-0.33-0.29-0.77-0.29h-23.3q-0.43 0-0.77 0.29l-18.63 16.3c-0.4 0.35-0.51 0.92-0.28 1.4l5.82 11.65c0.16 0.32 0.46 0.54 0.79 0.61 0.34 0.07 0.7-0.01 0.98-0.23l9.31-7.46-4.2 27.33c-0.05 0.34 0.04 0.67 0.26 0.93 0.21 0.27 0.54 0.41 0.89 0.41h34.94c0.33 0 0.65-0.14 0.89-0.41 0.21-0.26 0.32-0.59 0.26-0.93l-4.2-27.31 9.32 7.45c0.28 0.22 0.64 0.31 0.98 0.23 0.35-0.07 0.64-0.3 0.78-0.61l5.83-11.64c0.25-0.49 0.13-1.07-0.26-1.42zm-47.18 32.33l2.33-15.15h11.52l-4.51 6.32 1.89 1.36 4.88-6.83 4.87 6.83 1.9-1.36-4.52-6.32h11.52l2.33 15.15zm-7.95-21.61l-4.78-9.55 16.95-14.84 10.52 16.15-8.06 12.37h-3.99l1.77-11.47c0.07-0.48-0.16-0.94-0.57-1.18-0.42-0.23-0.93-0.2-1.31 0.1l-10.53 8.42zm33.56-24.98l-9.49 14.61-9.49-14.61zm14.57 24.98l-10.53-8.42c-0.37-0.3-0.88-0.33-1.31-0.1-0.42 0.23-0.64 0.72-0.56 1.18l1.76 11.47h-20.09l7.63-11.73 10.92-16.79 16.96 14.84c0 0-4.78 9.55-4.78 9.55z"/>
		<path class="s0" d="m43.06 31.77v-7.73q0-0.09-0.06-0.16-0.07-0.07-0.16-0.07h-7.73q-0.09 0-0.16 0.07-0.07 0.07-0.07 0.16v7.73q0 0.09 0.07 0.16 0.07 0.06 0.16 0.06h7.73q0.09 0 0.16-0.06 0.06-0.07 0.06-0.16zm-7.72-0.23v-3.64h3.63v-3.63h3.64v3.63h-3.64v3.64z"/>
	</g>
</svg>